<svg width="281" height="41" viewBox="0 0 281 41" fill="none" xmlns="http://www.w3.org/2000/svg">
<path d="M86.654 17H83.994L77.971 7.899V17H75.311V3.719H77.971L83.994 12.839V3.719H86.654V17ZM99.0677 11.509C99.0677 11.889 99.0423 12.231 98.9917 12.535H91.2967C91.36 13.295 91.626 13.8903 92.0947 14.321C92.5633 14.7517 93.1397 14.967 93.8237 14.967C94.8117 14.967 95.5147 14.5427 95.9327 13.694H98.8017C98.4977 14.7073 97.915 15.5433 97.0537 16.202C96.1923 16.848 95.1347 17.171 93.8807 17.171C92.8673 17.171 91.9553 16.9493 91.1447 16.506C90.3467 16.05 89.7197 15.4103 89.2637 14.587C88.8203 13.7637 88.5987 12.8137 88.5987 11.737C88.5987 10.6477 88.8203 9.69133 89.2637 8.868C89.707 8.04467 90.3277 7.41133 91.1257 6.968C91.9237 6.52467 92.842 6.303 93.8807 6.303C94.8813 6.303 95.7743 6.51833 96.5597 6.949C97.3577 7.37967 97.972 7.994 98.4027 8.792C98.846 9.57733 99.0677 10.483 99.0677 11.509ZM96.3127 10.749C96.3 10.065 96.053 9.52033 95.5717 9.115C95.0903 8.697 94.5013 8.488 93.8047 8.488C93.146 8.488 92.5887 8.69067 92.1327 9.096C91.6893 9.48867 91.417 10.0397 91.3157 10.749H96.3127ZM110.794 11.509C110.794 11.889 110.769 12.231 110.718 12.535H103.023C103.087 13.295 103.353 13.8903 103.821 14.321C104.29 14.7517 104.866 14.967 105.55 14.967C106.538 14.967 107.241 14.5427 107.659 13.694H110.528C110.224 14.7073 109.642 15.5433 108.78 16.202C107.919 16.848 106.861 17.171 105.607 17.171C104.594 17.171 103.682 16.9493 102.871 16.506C102.073 16.05 101.446 15.4103 100.99 14.587C100.547 13.7637 100.325 12.8137 100.325 11.737C100.325 10.6477 100.547 9.69133 100.99 8.868C101.434 8.04467 102.054 7.41133 102.852 6.968C103.65 6.52467 104.569 6.303 105.607 6.303C106.608 6.303 107.501 6.51833 108.286 6.949C109.084 7.37967 109.699 7.994 110.129 8.792C110.573 9.57733 110.794 10.483 110.794 11.509ZM108.039 10.749C108.027 10.065 107.78 9.52033 107.298 9.115C106.817 8.697 106.228 8.488 105.531 8.488C104.873 8.488 104.315 8.69067 103.859 9.096C103.416 9.48867 103.144 10.0397 103.042 10.749H108.039ZM115.396 8.108C115.738 7.55067 116.181 7.11367 116.726 6.797C117.283 6.48033 117.916 6.322 118.626 6.322V9.115H117.923C117.087 9.115 116.453 9.31133 116.023 9.704C115.605 10.0967 115.396 10.7807 115.396 11.756V17H112.736V6.474H115.396V8.108ZM119.733 11.699C119.733 10.635 119.942 9.69133 120.36 8.868C120.791 8.04467 121.367 7.41133 122.089 6.968C122.824 6.52467 123.641 6.303 124.54 6.303C125.326 6.303 126.01 6.46133 126.592 6.778C127.188 7.09467 127.663 7.49367 128.017 7.975V6.474H130.696V17H128.017V15.461C127.675 15.955 127.2 16.3667 126.592 16.696C125.997 17.0127 125.307 17.171 124.521 17.171C123.635 17.171 122.824 16.943 122.089 16.487C121.367 16.031 120.791 15.3913 120.36 14.568C119.942 13.732 119.733 12.7757 119.733 11.699ZM128.017 11.737C128.017 11.091 127.891 10.54 127.637 10.084C127.384 9.61533 127.042 9.26067 126.611 9.02C126.181 8.76667 125.718 8.64 125.224 8.64C124.73 8.64 124.274 8.76033 123.856 9.001C123.438 9.24167 123.096 9.59633 122.83 10.065C122.577 10.521 122.45 11.0657 122.45 11.699C122.45 12.3323 122.577 12.8897 122.83 13.371C123.096 13.8397 123.438 14.2007 123.856 14.454C124.287 14.7073 124.743 14.834 125.224 14.834C125.718 14.834 126.181 14.7137 126.611 14.473C127.042 14.2197 127.384 13.865 127.637 13.409C127.891 12.9403 128.017 12.383 128.017 11.737ZM137.683 14.549L140.343 6.474H143.174L139.279 17H136.049L132.173 6.474H135.023L137.683 14.549ZM159.741 3.738L155.257 12.383V17H152.597V12.383L148.094 3.738H151.096L153.946 9.799L156.777 3.738H159.741ZM162.453 17.133C161.972 17.133 161.573 16.9873 161.256 16.696C160.952 16.392 160.8 16.0183 160.8 15.575C160.8 15.1317 160.952 14.7643 161.256 14.473C161.573 14.169 161.972 14.017 162.453 14.017C162.922 14.017 163.308 14.169 163.612 14.473C163.916 14.7643 164.068 15.1317 164.068 15.575C164.068 16.0183 163.916 16.392 163.612 16.696C163.308 16.9873 162.922 17.133 162.453 17.133ZM175.317 17.133C174.392 17.133 173.556 16.9747 172.809 16.658C172.074 16.3413 171.491 15.8853 171.061 15.29C170.63 14.6947 170.408 13.9917 170.396 13.181H173.246C173.284 13.7257 173.474 14.1563 173.816 14.473C174.17 14.7897 174.652 14.948 175.26 14.948C175.88 14.948 176.368 14.8023 176.723 14.511C177.077 14.207 177.255 13.8143 177.255 13.333C177.255 12.9403 177.134 12.6173 176.894 12.364C176.653 12.1107 176.349 11.9143 175.982 11.775C175.627 11.623 175.133 11.4583 174.5 11.281C173.638 11.0277 172.935 10.7807 172.391 10.54C171.859 10.2867 171.396 9.913 171.004 9.419C170.624 8.91233 170.434 8.241 170.434 7.405C170.434 6.61967 170.63 5.93567 171.023 5.353C171.415 4.77033 171.966 4.327 172.676 4.023C173.385 3.70633 174.196 3.548 175.108 3.548C176.476 3.548 177.584 3.88367 178.433 4.555C179.294 5.21367 179.769 6.13833 179.858 7.329H176.932C176.906 6.873 176.71 6.49933 176.343 6.208C175.988 5.904 175.513 5.752 174.918 5.752C174.398 5.752 173.98 5.885 173.664 6.151C173.36 6.417 173.208 6.80333 173.208 7.31C173.208 7.66467 173.322 7.96233 173.55 8.203C173.79 8.431 174.082 8.621 174.424 8.773C174.778 8.91233 175.272 9.077 175.906 9.267C176.767 9.52033 177.47 9.77367 178.015 10.027C178.559 10.2803 179.028 10.6603 179.421 11.167C179.813 11.6737 180.01 12.3387 180.01 13.162C180.01 13.8713 179.826 14.53 179.459 15.138C179.091 15.746 178.553 16.2337 177.844 16.601C177.134 16.9557 176.292 17.133 175.317 17.133ZM188.244 6.322C189.042 6.322 189.751 6.49933 190.372 6.854C190.993 7.196 191.474 7.709 191.816 8.393C192.171 9.06433 192.348 9.875 192.348 10.825V17H189.688V11.186C189.688 10.35 189.479 9.71033 189.061 9.267C188.643 8.811 188.073 8.583 187.351 8.583C186.616 8.583 186.034 8.811 185.603 9.267C185.185 9.71033 184.976 10.35 184.976 11.186V17H182.316V2.94H184.976V7.785C185.318 7.329 185.774 6.97433 186.344 6.721C186.914 6.455 187.547 6.322 188.244 6.322ZM194.193 11.699C194.193 10.635 194.402 9.69133 194.82 8.868C195.251 8.04467 195.827 7.41133 196.549 6.968C197.284 6.52467 198.101 6.303 199 6.303C199.786 6.303 200.47 6.46133 201.052 6.778C201.648 7.09467 202.123 7.49367 202.477 7.975V6.474H205.156V17H202.477V15.461C202.135 15.955 201.66 16.3667 201.052 16.696C200.457 17.0127 199.767 17.171 198.981 17.171C198.095 17.171 197.284 16.943 196.549 16.487C195.827 16.031 195.251 15.3913 194.82 14.568C194.402 13.732 194.193 12.7757 194.193 11.699ZM202.477 11.737C202.477 11.091 202.351 10.54 202.097 10.084C201.844 9.61533 201.502 9.26067 201.071 9.02C200.641 8.76667 200.178 8.64 199.684 8.64C199.19 8.64 198.734 8.76033 198.316 9.001C197.898 9.24167 197.556 9.59633 197.29 10.065C197.037 10.521 196.91 11.0657 196.91 11.699C196.91 12.3323 197.037 12.8897 197.29 13.371C197.556 13.8397 197.898 14.2007 198.316 14.454C198.747 14.7073 199.203 14.834 199.684 14.834C200.178 14.834 200.641 14.7137 201.071 14.473C201.502 14.2197 201.844 13.865 202.097 13.409C202.351 12.9403 202.477 12.383 202.477 11.737ZM213.682 6.322C214.48 6.322 215.19 6.49933 215.81 6.854C216.431 7.196 216.912 7.709 217.254 8.393C217.609 9.06433 217.786 9.875 217.786 10.825V17H215.126V11.186C215.126 10.35 214.917 9.71033 214.499 9.267C214.081 8.811 213.511 8.583 212.789 8.583C212.055 8.583 211.472 8.811 211.041 9.267C210.623 9.71033 210.414 10.35 210.414 11.186V17H207.754V2.94H210.414V7.785C210.756 7.329 211.212 6.97433 211.782 6.721C212.352 6.455 212.986 6.322 213.682 6.322ZM235.046 17L233.602 15.575C232.374 16.677 230.873 17.228 229.099 17.228C228.124 17.228 227.263 17.0633 226.515 16.734C225.781 16.392 225.211 15.917 224.805 15.309C224.4 14.6883 224.197 13.9727 224.197 13.162C224.197 12.288 224.444 11.5027 224.938 10.806C225.432 10.1093 226.161 9.54567 227.123 9.115C226.781 8.697 226.534 8.298 226.382 7.918C226.23 7.52533 226.154 7.10733 226.154 6.664C226.154 6.056 226.313 5.51133 226.629 5.03C226.946 4.536 227.396 4.14967 227.978 3.871C228.574 3.59233 229.264 3.453 230.049 3.453C230.847 3.453 231.531 3.605 232.101 3.909C232.671 4.213 233.096 4.61833 233.374 5.125C233.653 5.63167 233.773 6.19533 233.735 6.816H231.151C231.164 6.398 231.063 6.08133 230.847 5.866C230.632 5.638 230.341 5.524 229.973 5.524C229.619 5.524 229.321 5.63167 229.08 5.847C228.852 6.04967 228.738 6.31567 228.738 6.645C228.738 6.96167 228.833 7.27833 229.023 7.595C229.213 7.899 229.524 8.279 229.954 8.735L233.298 12.041C233.324 12.0157 233.343 11.9903 233.355 11.965C233.368 11.9397 233.381 11.9143 233.393 11.889L234.476 10.084H237.25L235.92 12.421C235.667 12.915 235.395 13.3837 235.103 13.827L238.314 17H235.046ZM229.175 15.024C230.214 15.024 231.132 14.6567 231.93 13.922L228.662 10.692C227.434 11.2367 226.819 12.0093 226.819 13.01C226.819 13.58 227.035 14.0613 227.465 14.454C227.896 14.834 228.466 15.024 229.175 15.024ZM243.513 10.35C243.513 9.04533 243.804 7.88 244.387 6.854C244.982 5.81533 245.786 5.011 246.8 4.441C247.826 3.85833 248.972 3.567 250.239 3.567C251.721 3.567 253.019 3.947 254.134 4.707C255.248 5.467 256.027 6.51833 256.471 7.861H253.412C253.108 7.22767 252.677 6.75267 252.12 6.436C251.575 6.11933 250.942 5.961 250.22 5.961C249.447 5.961 248.757 6.14467 248.149 6.512C247.553 6.86667 247.085 7.37333 246.743 8.032C246.413 8.69067 246.249 9.46333 246.249 10.35C246.249 11.224 246.413 11.9967 246.743 12.668C247.085 13.3267 247.553 13.8397 248.149 14.207C248.757 14.5617 249.447 14.739 250.22 14.739C250.942 14.739 251.575 14.5807 252.12 14.264C252.677 13.9347 253.108 13.4533 253.412 12.82H256.471C256.027 14.1753 255.248 15.233 254.134 15.993C253.032 16.7403 251.733 17.114 250.239 17.114C248.972 17.114 247.826 16.829 246.8 16.259C245.786 15.6763 244.982 14.872 244.387 13.846C243.804 12.82 243.513 11.6547 243.513 10.35ZM263.417 17.171C262.403 17.171 261.491 16.9493 260.681 16.506C259.87 16.05 259.23 15.4103 258.762 14.587C258.306 13.7637 258.078 12.8137 258.078 11.737C258.078 10.6603 258.312 9.71033 258.781 8.887C259.262 8.06367 259.914 7.43033 260.738 6.987C261.561 6.531 262.479 6.303 263.493 6.303C264.506 6.303 265.424 6.531 266.248 6.987C267.071 7.43033 267.717 8.06367 268.186 8.887C268.667 9.71033 268.908 10.6603 268.908 11.737C268.908 12.8137 268.661 13.7637 268.167 14.587C267.685 15.4103 267.027 16.05 266.191 16.506C265.367 16.9493 264.443 17.171 263.417 17.171ZM263.417 14.853C263.898 14.853 264.348 14.739 264.766 14.511C265.196 14.2703 265.538 13.9157 265.792 13.447C266.045 12.9783 266.172 12.4083 266.172 11.737C266.172 10.7363 265.906 9.97 265.374 9.438C264.854 8.89333 264.215 8.621 263.455 8.621C262.695 8.621 262.055 8.89333 261.536 9.438C261.029 9.97 260.776 10.7363 260.776 11.737C260.776 12.7377 261.023 13.5103 261.517 14.055C262.023 14.587 262.657 14.853 263.417 14.853ZM272.037 17.133C271.556 17.133 271.157 16.9873 270.84 16.696C270.536 16.392 270.384 16.0183 270.384 15.575C270.384 15.1317 270.536 14.7643 270.84 14.473C271.157 14.169 271.556 14.017 272.037 14.017C272.506 14.017 272.892 14.169 273.196 14.473C273.5 14.7643 273.652 15.1317 273.652 15.575C273.652 16.0183 273.5 16.392 273.196 16.696C272.892 16.9873 272.506 17.133 272.037 17.133Z" fill="black"/>
<path d="M74.555 30.765C74.555 29.745 74.79 28.83 75.26 28.02C75.74 27.21 76.385 26.58 77.195 26.13C78.015 25.67 78.91 25.44 79.88 25.44C80.99 25.44 81.975 25.715 82.835 26.265C83.705 26.805 84.335 27.575 84.725 28.575H82.67C82.4 28.025 82.025 27.615 81.545 27.345C81.065 27.075 80.51 26.94 79.88 26.94C79.19 26.94 78.575 27.095 78.035 27.405C77.495 27.715 77.07 28.16 76.76 28.74C76.46 29.32 76.31 29.995 76.31 30.765C76.31 31.535 76.46 32.21 76.76 32.79C77.07 33.37 77.495 33.82 78.035 34.14C78.575 34.45 79.19 34.605 79.88 34.605C80.51 34.605 81.065 34.47 81.545 34.2C82.025 33.93 82.4 33.52 82.67 32.97H84.725C84.335 33.97 83.705 34.74 82.835 35.28C81.975 35.82 80.99 36.09 79.88 36.09C78.9 36.09 78.005 35.865 77.195 35.415C76.385 34.955 75.74 34.32 75.26 33.51C74.79 32.7 74.555 31.785 74.555 30.765ZM91.0016 27.6C91.6316 27.6 92.1916 27.735 92.6816 28.005C93.1816 28.275 93.5716 28.675 93.8516 29.205C94.1416 29.735 94.2866 30.375 94.2866 31.125V36H92.5916V31.38C92.5916 30.64 92.4066 30.075 92.0366 29.685C91.6666 29.285 91.1616 29.085 90.5216 29.085C89.8816 29.085 89.3716 29.285 88.9916 29.685C88.6216 30.075 88.4366 30.64 88.4366 31.38V36H86.7266V24.9H88.4366V28.695C88.7266 28.345 89.0916 28.075 89.5316 27.885C89.9816 27.695 90.4716 27.6 91.0016 27.6ZM95.8978 31.83C95.8978 31 96.0678 30.265 96.4078 29.625C96.7578 28.985 97.2278 28.49 97.8178 28.14C98.4178 27.78 99.0778 27.6 99.7978 27.6C100.448 27.6 101.013 27.73 101.493 27.99C101.983 28.24 102.373 28.555 102.663 28.935V27.735H104.388V36H102.663V34.77C102.373 35.16 101.978 35.485 101.478 35.745C100.978 36.005 100.408 36.135 99.7678 36.135C99.0578 36.135 98.4078 35.955 97.8178 35.595C97.2278 35.225 96.7578 34.715 96.4078 34.065C96.0678 33.405 95.8978 32.66 95.8978 31.83ZM102.663 31.86C102.663 31.29 102.543 30.795 102.303 30.375C102.073 29.955 101.768 29.635 101.388 29.415C101.008 29.195 100.598 29.085 100.158 29.085C99.7178 29.085 99.3078 29.195 98.9278 29.415C98.5478 29.625 98.2378 29.94 97.9978 30.36C97.7678 30.77 97.6528 31.26 97.6528 31.83C97.6528 32.4 97.7678 32.9 97.9978 33.33C98.2378 33.76 98.5478 34.09 98.9278 34.32C99.3178 34.54 99.7278 34.65 100.158 34.65C100.598 34.65 101.008 34.54 101.388 34.32C101.768 34.1 102.073 33.78 102.303 33.36C102.543 32.93 102.663 32.43 102.663 31.86ZM108.344 28.935C108.594 28.515 108.924 28.19 109.334 27.96C109.754 27.72 110.249 27.6 110.819 27.6V29.37H110.384C109.714 29.37 109.204 29.54 108.854 29.88C108.514 30.22 108.344 30.81 108.344 31.65V36H106.634V27.735H108.344V28.935ZM114.386 29.13V33.705C114.386 34.015 114.456 34.24 114.596 34.38C114.746 34.51 114.996 34.575 115.346 34.575H116.396V36H115.046C114.276 36 113.686 35.82 113.276 35.46C112.866 35.1 112.661 34.515 112.661 33.705V29.13H111.686V27.735H112.661V25.68H114.386V27.735H116.396V29.13H114.386ZM125.547 31.665C125.547 31.975 125.527 32.255 125.487 32.505H119.172C119.222 33.165 119.467 33.695 119.907 34.095C120.347 34.495 120.887 34.695 121.527 34.695C122.447 34.695 123.097 34.31 123.477 33.54H125.322C125.072 34.3 124.617 34.925 123.957 35.415C123.307 35.895 122.497 36.135 121.527 36.135C120.737 36.135 120.027 35.96 119.397 35.61C118.777 35.25 118.287 34.75 117.927 34.11C117.577 33.46 117.402 32.71 117.402 31.86C117.402 31.01 117.572 30.265 117.912 29.625C118.262 28.975 118.747 28.475 119.367 28.125C119.997 27.775 120.717 27.6 121.527 27.6C122.307 27.6 123.002 27.77 123.612 28.11C124.222 28.45 124.697 28.93 125.037 29.55C125.377 30.16 125.547 30.865 125.547 31.665ZM123.762 31.125C123.752 30.495 123.527 29.99 123.087 29.61C122.647 29.23 122.102 29.04 121.452 29.04C120.862 29.04 120.357 29.23 119.937 29.61C119.517 29.98 119.267 30.485 119.187 31.125H123.762ZM128.939 28.935C129.189 28.515 129.519 28.19 129.929 27.96C130.349 27.72 130.844 27.6 131.414 27.6V29.37H130.979C130.309 29.37 129.799 29.54 129.449 29.88C129.109 30.22 128.939 30.81 128.939 31.65V36H127.229V27.735H128.939V28.935ZM140.561 31.665C140.561 31.975 140.541 32.255 140.501 32.505H134.186C134.236 33.165 134.481 33.695 134.921 34.095C135.361 34.495 135.901 34.695 136.541 34.695C137.461 34.695 138.111 34.31 138.491 33.54H140.336C140.086 34.3 139.631 34.925 138.971 35.415C138.321 35.895 137.511 36.135 136.541 36.135C135.751 36.135 135.041 35.96 134.411 35.61C133.791 35.25 133.301 34.75 132.941 34.11C132.591 33.46 132.416 32.71 132.416 31.86C132.416 31.01 132.586 30.265 132.926 29.625C133.276 28.975 133.761 28.475 134.381 28.125C135.011 27.775 135.731 27.6 136.541 27.6C137.321 27.6 138.016 27.77 138.626 28.11C139.236 28.45 139.711 28.93 140.051 29.55C140.391 30.16 140.561 30.865 140.561 31.665ZM138.776 31.125C138.766 30.495 138.541 29.99 138.101 29.61C137.661 29.23 137.116 29.04 136.466 29.04C135.876 29.04 135.371 29.23 134.951 29.61C134.531 29.98 134.281 30.485 134.201 31.125H138.776ZM141.674 31.83C141.674 31 141.844 30.265 142.184 29.625C142.534 28.985 143.004 28.49 143.594 28.14C144.194 27.78 144.859 27.6 145.589 27.6C146.129 27.6 146.659 27.72 147.179 27.96C147.709 28.19 148.129 28.5 148.439 28.89V24.9H150.164V36H148.439V34.755C148.159 35.155 147.769 35.485 147.269 35.745C146.779 36.005 146.214 36.135 145.574 36.135C144.854 36.135 144.194 35.955 143.594 35.595C143.004 35.225 142.534 34.715 142.184 34.065C141.844 33.405 141.674 32.66 141.674 31.83ZM148.439 31.86C148.439 31.29 148.319 30.795 148.079 30.375C147.849 29.955 147.544 29.635 147.164 29.415C146.784 29.195 146.374 29.085 145.934 29.085C145.494 29.085 145.084 29.195 144.704 29.415C144.324 29.625 144.014 29.94 143.774 30.36C143.544 30.77 143.429 31.26 143.429 31.83C143.429 32.4 143.544 32.9 143.774 33.33C144.014 33.76 144.324 34.09 144.704 34.32C145.094 34.54 145.504 34.65 145.934 34.65C146.374 34.65 146.784 34.54 147.164 34.32C147.544 34.1 147.849 33.78 148.079 33.36C148.319 32.93 148.439 32.43 148.439 31.86ZM162.592 33.87H158.227L157.477 36H155.692L159.427 25.56H161.407L165.142 36H163.342L162.592 33.87ZM162.112 32.475L160.417 27.63L158.707 32.475H162.112ZM166.196 31.86C166.196 31.01 166.366 30.265 166.706 29.625C167.056 28.975 167.536 28.475 168.146 28.125C168.756 27.775 169.456 27.6 170.246 27.6C171.246 27.6 172.071 27.84 172.721 28.32C173.381 28.79 173.826 29.465 174.056 30.345H172.211C172.061 29.935 171.821 29.615 171.491 29.385C171.161 29.155 170.746 29.04 170.246 29.04C169.546 29.04 168.986 29.29 168.566 29.79C168.156 30.28 167.951 30.97 167.951 31.86C167.951 32.75 168.156 33.445 168.566 33.945C168.986 34.445 169.546 34.695 170.246 34.695C171.236 34.695 171.891 34.26 172.211 33.39H174.056C173.816 34.23 173.366 34.9 172.706 35.4C172.046 35.89 171.226 36.135 170.246 36.135C169.456 36.135 168.756 35.96 168.146 35.61C167.536 35.25 167.056 34.75 166.706 34.11C166.366 33.46 166.196 32.71 166.196 31.86ZM175.19 31.86C175.19 31.01 175.36 30.265 175.7 29.625C176.05 28.975 176.53 28.475 177.14 28.125C177.75 27.775 178.45 27.6 179.24 27.6C180.24 27.6 181.065 27.84 181.715 28.32C182.375 28.79 182.82 29.465 183.05 30.345H181.205C181.055 29.935 180.815 29.615 180.485 29.385C180.155 29.155 179.74 29.04 179.24 29.04C178.54 29.04 177.98 29.29 177.56 29.79C177.15 30.28 176.945 30.97 176.945 31.86C176.945 32.75 177.15 33.445 177.56 33.945C177.98 34.445 178.54 34.695 179.24 34.695C180.23 34.695 180.885 34.26 181.205 33.39H183.05C182.81 34.23 182.36 34.9 181.7 35.4C181.04 35.89 180.22 36.135 179.24 36.135C178.45 36.135 177.75 35.96 177.14 35.61C176.53 35.25 176.05 34.75 175.7 34.11C175.36 33.46 175.19 32.71 175.19 31.86ZM188.339 36.135C187.559 36.135 186.854 35.96 186.224 35.61C185.594 35.25 185.099 34.75 184.739 34.11C184.379 33.46 184.199 32.71 184.199 31.86C184.199 31.02 184.384 30.275 184.754 29.625C185.124 28.975 185.629 28.475 186.269 28.125C186.909 27.775 187.624 27.6 188.414 27.6C189.204 27.6 189.919 27.775 190.559 28.125C191.199 28.475 191.704 28.975 192.074 29.625C192.444 30.275 192.629 31.02 192.629 31.86C192.629 32.7 192.439 33.445 192.059 34.095C191.679 34.745 191.159 35.25 190.499 35.61C189.849 35.96 189.129 36.135 188.339 36.135ZM188.339 34.65C188.779 34.65 189.189 34.545 189.569 34.335C189.959 34.125 190.274 33.81 190.514 33.39C190.754 32.97 190.874 32.46 190.874 31.86C190.874 31.26 190.759 30.755 190.529 30.345C190.299 29.925 189.994 29.61 189.614 29.4C189.234 29.19 188.824 29.085 188.384 29.085C187.944 29.085 187.534 29.19 187.154 29.4C186.784 29.61 186.489 29.925 186.269 30.345C186.049 30.755 185.939 31.26 185.939 31.86C185.939 32.75 186.164 33.44 186.614 33.93C187.074 34.41 187.649 34.65 188.339 34.65ZM201.804 27.735V36H200.094V35.025C199.824 35.365 199.469 35.635 199.029 35.835C198.599 36.025 198.139 36.12 197.649 36.12C196.999 36.12 196.414 35.985 195.894 35.715C195.384 35.445 194.979 35.045 194.679 34.515C194.389 33.985 194.244 33.345 194.244 32.595V27.735H195.939V32.34C195.939 33.08 196.124 33.65 196.494 34.05C196.864 34.44 197.369 34.635 198.009 34.635C198.649 34.635 199.154 34.44 199.524 34.05C199.904 33.65 200.094 33.08 200.094 32.34V27.735H201.804ZM208.231 27.6C208.881 27.6 209.461 27.735 209.971 28.005C210.491 28.275 210.896 28.675 211.186 29.205C211.476 29.735 211.621 30.375 211.621 31.125V36H209.926V31.38C209.926 30.64 209.741 30.075 209.371 29.685C209.001 29.285 208.496 29.085 207.856 29.085C207.216 29.085 206.706 29.285 206.326 29.685C205.956 30.075 205.771 30.64 205.771 31.38V36H204.061V27.735H205.771V28.68C206.051 28.34 206.406 28.075 206.836 27.885C207.276 27.695 207.741 27.6 208.231 27.6ZM215.797 29.13V33.705C215.797 34.015 215.867 34.24 216.007 34.38C216.157 34.51 216.407 34.575 216.757 34.575H217.807V36H216.457C215.687 36 215.097 35.82 214.687 35.46C214.277 35.1 214.072 34.515 214.072 33.705V29.13H213.097V27.735H214.072V25.68H215.797V27.735H217.807V29.13H215.797ZM218.813 31.83C218.813 31 218.983 30.265 219.323 29.625C219.673 28.985 220.143 28.49 220.733 28.14C221.333 27.78 221.993 27.6 222.713 27.6C223.363 27.6 223.928 27.73 224.408 27.99C224.898 28.24 225.288 28.555 225.578 28.935V27.735H227.303V36H225.578V34.77C225.288 35.16 224.893 35.485 224.393 35.745C223.893 36.005 223.323 36.135 222.683 36.135C221.973 36.135 221.323 35.955 220.733 35.595C220.143 35.225 219.673 34.715 219.323 34.065C218.983 33.405 218.813 32.66 218.813 31.83ZM225.578 31.86C225.578 31.29 225.458 30.795 225.218 30.375C224.988 29.955 224.683 29.635 224.303 29.415C223.923 29.195 223.513 29.085 223.073 29.085C222.633 29.085 222.223 29.195 221.843 29.415C221.463 29.625 221.153 29.94 220.913 30.36C220.683 30.77 220.568 31.26 220.568 31.83C220.568 32.4 220.683 32.9 220.913 33.33C221.153 33.76 221.463 34.09 221.843 34.32C222.233 34.54 222.643 34.65 223.073 34.65C223.513 34.65 223.923 34.54 224.303 34.32C224.683 34.1 224.988 33.78 225.218 33.36C225.458 32.93 225.578 32.43 225.578 31.86ZM233.719 27.6C234.369 27.6 234.949 27.735 235.459 28.005C235.979 28.275 236.384 28.675 236.674 29.205C236.964 29.735 237.109 30.375 237.109 31.125V36H235.414V31.38C235.414 30.64 235.229 30.075 234.859 29.685C234.489 29.285 233.984 29.085 233.344 29.085C232.704 29.085 232.194 29.285 231.814 29.685C231.444 30.075 231.259 30.64 231.259 31.38V36H229.549V27.735H231.259V28.68C231.539 28.34 231.894 28.075 232.324 27.885C232.764 27.695 233.229 27.6 233.719 27.6ZM241.285 29.13V33.705C241.285 34.015 241.355 34.24 241.495 34.38C241.645 34.51 241.895 34.575 242.245 34.575H243.295V36H241.945C241.175 36 240.585 35.82 240.175 35.46C239.765 35.1 239.56 34.515 239.56 33.705V29.13H238.585V27.735H239.56V25.68H241.285V27.735H243.295V29.13H241.285ZM247.871 36.135C247.221 36.135 246.636 36.02 246.116 35.79C245.606 35.55 245.201 35.23 244.901 34.83C244.601 34.42 244.441 33.965 244.421 33.465H246.191C246.221 33.815 246.386 34.11 246.686 34.35C246.996 34.58 247.381 34.695 247.841 34.695C248.321 34.695 248.691 34.605 248.951 34.425C249.221 34.235 249.356 33.995 249.356 33.705C249.356 33.395 249.206 33.165 248.906 33.015C248.616 32.865 248.151 32.7 247.511 32.52C246.891 32.35 246.386 32.185 245.996 32.025C245.606 31.865 245.266 31.62 244.976 31.29C244.696 30.96 244.556 30.525 244.556 29.985C244.556 29.545 244.686 29.145 244.946 28.785C245.206 28.415 245.576 28.125 246.056 27.915C246.546 27.705 247.106 27.6 247.736 27.6C248.676 27.6 249.431 27.84 250.001 28.32C250.581 28.79 250.891 29.435 250.931 30.255H249.221C249.191 29.885 249.041 29.59 248.771 29.37C248.501 29.15 248.136 29.04 247.676 29.04C247.226 29.04 246.881 29.125 246.641 29.295C246.401 29.465 246.281 29.69 246.281 29.97C246.281 30.19 246.361 30.375 246.521 30.525C246.681 30.675 246.876 30.795 247.106 30.885C247.336 30.965 247.676 31.07 248.126 31.2C248.726 31.36 249.216 31.525 249.596 31.695C249.986 31.855 250.321 32.095 250.601 32.415C250.881 32.735 251.026 33.16 251.036 33.69C251.036 34.16 250.906 34.58 250.646 34.95C250.386 35.32 250.016 35.61 249.536 35.82C249.066 36.03 248.511 36.135 247.871 36.135Z" fill="#9B9B9B"/>
<path d="M45.2833 18.0372L41.2369 19.1091C41.2137 19.1151 41.193 19.1102 41.175 19.0945L41.1548 19.0743C41.0933 19.0062 41.0426 18.9318 41.0029 18.8509C39.6653 16.083 38.3293 13.3146 36.9947 10.5459C36.8514 10.2488 36.6647 9.95512 36.4344 9.66478C35.9854 9.09906 35.461 9.59182 35.2371 10.0307C33.5342 13.3898 31.8336 16.7505 30.1352 20.1126C29.9357 20.5069 29.7181 20.9118 29.4826 21.3271L27.3963 21.5347C27.3816 21.5361 27.3675 21.5413 27.3553 21.5498C27.3432 21.5582 27.3335 21.5697 27.3271 21.5831C27.3207 21.5964 27.318 21.6112 27.3191 21.6259C27.3202 21.6407 27.3251 21.6549 27.3333 21.6672C27.7242 22.2568 28.0726 22.8858 28.3787 23.554C26.3945 27.4901 24.4039 31.4089 22.407 35.3106C22.3113 35.498 22.2112 35.6743 22.0424 35.8146C20.9262 36.744 19.6625 37.2865 18.2514 37.4421C17.6941 37.5035 17.0227 37.4717 16.2372 37.3467C12.1661 36.6991 8.07131 35.2017 5.00838 32.3529C-5.04236 23.004 0.992358 4.88874 14.6011 3.31169C15.1435 3.24883 15.8922 3.21666 16.8471 3.21516C20.4322 3.20992 23.5172 3.22227 26.1023 3.2522C26.4005 3.25557 26.6706 3.39924 26.8686 3.63047C27.4976 4.36568 27.6023 5.56109 27.043 6.36813C26.821 6.6884 26.498 6.84256 26.0742 6.83058C23.2948 6.755 20.5154 6.70225 17.7361 6.67232C17.0407 6.66409 16.4319 6.7015 15.9098 6.78456C12.9661 7.2515 10.1643 8.34365 7.88789 10.3023C4.27584 13.4104 2.90753 18.1348 3.90451 22.7458C5.25931 29.0035 10.3556 33.4013 16.819 33.536C17.3512 33.5461 17.78 33.5629 18.2638 33.3755C19.2664 32.986 19.9551 32.2497 20.4479 31.2933C24.9234 22.5898 29.3993 13.8867 33.8755 5.18394C34.3909 4.18159 34.8691 3.42281 35.8459 3.08271C36.6965 2.78638 37.7228 3.33302 38.3023 3.98067C38.4801 4.17972 38.6826 4.5101 38.9099 4.9718C41.0336 9.30073 43.1551 13.6304 45.2743 17.9608C45.2871 17.9878 45.2901 18.0132 45.2833 18.0372Z" fill="#175887"/>
<path d="M39.953 19.4113C39.8157 19.4304 39.4365 19.5763 39.3791 19.5673C39.3611 19.5644 39.3412 19.5576 39.3194 19.5471L35.1515 11.1657C35.1343 11.1308 35.1281 11.0915 35.134 11.0532C35.1398 11.0148 35.1573 10.9793 35.1841 10.9513L35.4879 10.6314C35.5472 10.5693 35.596 10.5768 35.6342 10.6539L39.953 19.4113Z" fill="#175887"/>
<path d="M28.3789 23.5508C28.0729 22.8825 27.7244 22.2536 27.3336 21.6639C27.3253 21.6517 27.3204 21.6374 27.3193 21.6227C27.3182 21.608 27.321 21.5932 27.3274 21.5798C27.3337 21.5665 27.3434 21.555 27.3556 21.5465C27.3677 21.538 27.3818 21.5329 27.3966 21.5315L29.4828 21.3238C32.614 20.922 35.7179 20.3742 38.7943 19.6806C38.9541 19.6446 39.1158 19.6173 39.2793 19.5986C39.2928 19.5971 39.3037 19.593 39.3119 19.5863C39.3269 19.5735 39.3296 19.5608 39.3198 19.5481C39.3416 19.5586 39.3614 19.5653 39.3794 19.5683C39.4368 19.5773 39.816 19.4314 39.9533 19.4123L41.1348 19.1407C41.1421 19.1392 41.1489 19.1348 41.154 19.1283C41.1705 19.1088 41.1709 19.0898 41.1551 19.0711L41.1754 19.0913C41.1934 19.107 41.214 19.1118 41.2372 19.1059L45.2837 18.0339L55.2253 15.3748C55.4631 15.312 55.4728 15.3363 55.2545 15.4478C51.1399 17.5595 46.8399 19.3277 42.3546 20.7525C39.0471 21.8024 35.7059 22.7647 32.3308 23.6394C32.3122 23.6443 32.2949 23.6533 32.2802 23.6658C32.2655 23.6783 32.2538 23.6939 32.246 23.7116C32.2383 23.7293 32.2346 23.7486 32.2352 23.7679C32.2359 23.7873 32.2409 23.8063 32.2498 23.8235L34.4565 28.0675C34.515 28.1805 34.4857 28.2628 34.3687 28.3145L31.8121 29.4302C31.7829 29.4429 31.75 29.4442 31.7199 29.4341C31.6897 29.4239 31.6644 29.4029 31.6489 29.3752C30.7532 27.7589 29.8478 26.1306 28.9326 24.4903C28.8651 24.3683 28.7147 24.0757 28.4814 23.6125C28.4708 23.5923 28.4577 23.5762 28.442 23.5642C28.4045 23.5366 28.3835 23.5321 28.3789 23.5508Z" fill="#F47920"/>
<path d="M47.6023 22.7025L43.7157 24.4064C43.3871 24.5448 43.0473 24.669 42.6962 24.779C42.6775 24.785 42.6628 24.794 42.6523 24.806C42.6358 24.8247 42.6283 24.8408 42.6298 24.8542L42.0379 25.0922L39.3328 26.1574C39.2466 26.1911 39.2293 26.2465 39.2811 26.3235C39.3411 26.4133 39.4108 26.5278 39.4904 26.667C40.1888 27.8867 40.8891 29.1301 41.5912 30.3969C41.6047 30.4211 41.6082 30.4496 41.6008 30.4761C41.5934 30.5026 41.5758 30.525 41.5518 30.5384L39.2147 31.8674C39.1807 31.8867 39.1403 31.8918 39.1024 31.8815C39.0644 31.8712 39.032 31.8464 39.0121 31.8124L34.9882 24.8464C34.9507 24.7805 34.9608 24.7237 35.0186 24.6758C35.0606 24.6406 35.1259 24.6095 35.2144 24.5826C42.425 22.3815 49.7155 20.1029 56.7146 17.5605C57.2412 17.3689 58.38 16.9469 60.1309 16.2944C60.1384 16.2914 60.1437 16.2932 60.1467 16.3L60.159 16.3269C60.1673 16.3441 60.1632 16.3576 60.1467 16.3673C56.077 18.7013 51.8955 20.813 47.6023 22.7025Z" fill="#52B946"/>
<path d="M47.6017 22.707L54.6087 36.996C54.6197 37.019 54.6218 37.0452 54.6145 37.0694C54.6071 37.0935 54.591 37.1138 54.5693 37.1262C53.183 37.9198 51.4715 37.8558 50.0491 37.2272C49.9714 37.1924 49.9084 37.1317 49.8714 37.0555L43.7151 24.4109L47.6017 22.707Z" fill="#175887"/>
<path d="M42.6285 24.8555C45.7867 31.2385 47.8703 35.4664 48.8793 37.5392C49.0324 37.8543 49.2259 38.0458 49.46 38.1139C49.52 38.1311 49.5447 38.1704 49.5342 38.2318L49.4555 38.6819C49.4457 38.7395 49.412 38.7631 49.3542 38.7526C48.7882 38.6493 48.3898 38.1263 48.1524 37.6391C46.1577 33.5481 44.1566 29.4598 42.1491 25.374C42.1169 25.3082 42.0794 25.2147 42.0366 25.0934L42.6285 24.8555Z" fill="#175887"/>
</svg>
